<?xml version="1.0" standalone="no"?>
<!DOCTYPE svg PUBLIC "-//W3C//DTD SVG 20010904//EN"
 "http://www.w3.org/TR/2001/REC-SVG-20010904/DTD/svg10.dtd">
<svg version="1.0" xmlns="http://www.w3.org/2000/svg"
 width="512.000000pt" height="512.000000pt" viewBox="0 0 512.000000 512.000000"
 preserveAspectRatio="xMidYMid meet">

<g transform="translate(0.000000,512.000000) scale(0.100000,-0.100000)"
fill="#000000" stroke="none">
<path d="M1700 4814 c-189 -22 -395 -81 -538 -153 -376 -189 -656 -511 -787
-903 -91 -275 -105 -543 -44 -826 112 -515 500 -954 996 -1125 196 -68 282
-82 518 -82 166 0 228 4 295 19 128 27 263 73 376 126 l101 47 12 -47 c41
-159 245 -219 368 -108 21 20 21 20 33 -4 7 -12 350 -362 764 -776 620 -621
757 -754 788 -762 74 -21 137 11 244 122 92 96 116 149 96 216 -9 30 -163 189
-774 800 -420 419 -769 762 -777 762 -8 0 -3 11 13 30 98 117 34 311 -118 355
-31 9 -56 18 -56 21 0 3 14 32 31 65 39 77 103 270 123 372 69 336 19 698
-140 1008 -77 151 -162 267 -284 389 -236 235 -507 374 -851 435 -84 15 -324
27 -389 19z m351 -320 c522 -84 934 -495 1024 -1018 19 -113 19 -309 0 -419
-92 -525 -506 -937 -1028 -1022 -673 -109 -1316 346 -1432 1014 -20 110 -19
325 0 437 42 240 157 464 329 643 299 310 678 435 1107 365z m1203 -2166 c9
-12 16 -32 16 -43 0 -13 -71 -91 -197 -217 -167 -167 -202 -198 -227 -198 -37
0 -66 26 -66 59 0 20 43 69 197 223 175 175 202 198 230 198 22 0 37 -7 47
-22z"/>
<path d="M1633 4426 c-236 -45 -446 -157 -618 -330 -568 -569 -413 -1518 305
-1881 216 -109 453 -146 693 -110 601 90 1029 606 1004 1210 -14 334 -162 637
-414 849 -140 117 -288 192 -482 243 -119 31 -371 41 -488 19z m471 -160 c635
-164 957 -871 665 -1460 -275 -554 -980 -743 -1494 -401 -277 184 -444 477
-462 811 -22 415 203 794 584 983 161 79 272 102 468 97 108 -4 163 -10 239
-30z"/>
</g>
</svg>
