<?xml version="1.0" encoding="utf-8"?>
<!-- Generator: Adobe Illustrator 24.1.3, SVG Export Plug-In . SVG Version: 6.00 Build 0)  -->
<svg version="1.1" id="Layer_2" xmlns="http://www.w3.org/2000/svg" xmlns:xlink="http://www.w3.org/1999/xlink" x="0px" y="0px"
	 viewBox="0 0 1024 1024" style="enable-background:new 0 0 1024 1024;" xml:space="preserve">
<g>
	<path d="M849.52,0H174.49C118.89,0,73.66,45.23,73.66,100.82v822.36c0,55.59,45.23,100.82,100.82,100.82h675.03
		c55.59,0,100.82-45.23,100.82-100.82V100.82C950.34,45.23,905.11,0,849.52,0z M875.2,923.18c0,14.16-11.52,25.68-25.68,25.68
		H174.49c-14.17,0-25.69-11.52-25.69-25.68V100.82c0-14.17,11.52-25.69,25.69-25.69h675.03c14.16,0,25.68,11.52,25.68,25.69V923.18z
		"/>
	<rect x="446.24" y="173.18" width="343.23" height="59.09"/>
	<rect x="446.24" y="327.82" width="203.09" height="59.09"/>
	<rect x="446.24" y="482.46" width="343.23" height="59.09"/>
	<rect x="446.24" y="637.09" width="222.8" height="59.09"/>
	<rect x="446.24" y="791.73" width="343.23" height="59.09"/>
	<circle cx="305.41" cy="198.38" r="50.34"/>
	<circle cx="305.41" cy="512" r="50.34"/>
	<circle cx="305.41" cy="825.62" r="50.34"/>
</g>
</svg>
